Coordinates
version=1
nRows=8
nColumns=46
inDegrees=yes

Units are S.I. units (second, meters, Newtons, ...)
Angles are in degrees.

endheader
time	pelvis_tilt	pelvis_list	pelvis_rotation	pelvis_tx	pelvis_ty	pelvis_tz	bb_angle	bb_tx	bb_ty	bb_tz	hip_flexion_r	hip_adduction_r	hip_rotation_r	knee_angle_r	knee_angle_r_beta	ankle_angle_r	subtalar_angle_r	mtp_angle_r	crank_angle_r	hip_flexion_l	hip_adduction_l	hip_rotation_l	knee_angle_l	knee_angle_l_beta	ankle_angle_l	subtalar_angle_l	mtp_angle_l	crank_angle_l	lumbar_extension	lumbar_bending	lumbar_rotation	arm_flex_r	arm_add_r	arm_rot_r	elbow_flex_r	pro_sup_r	wrist_flex_r	wrist_dev_r	arm_flex_l	arm_add_l	arm_rot_l	elbow_flex_l	pro_sup_l	wrist_flex_l	wrist_dev_l
      2.50500000	    -14.13615306	     -2.90375411	     -8.19245961	      0.12252056	      1.15250235	     -0.24654527	      0.00000000	      0.50000000	      0.00000000	      0.25000000	     83.63636133	      3.57479358	     -0.42522021	     88.83129129	      1.55039851	     17.28286591	     -3.15105731	      0.00000000	      0.00000000	     52.30828154	    -11.21079860	     -1.08211251	     70.33081770	      1.22750433	    -11.10100033	    -14.23305695	      0.00000000	      0.00000000	    -65.79326755	     10.46329474	      9.35407139	     89.86908239	      6.66360294	     25.50483127	     59.38685893	     25.64775971	      0.00000000	      0.00000000	     89.62644185	    -24.28807834	     30.23933059	     53.13066047	     32.65612340	      0.00000000	      0.00000000
      2.51000000	    -14.47829686	     -2.88212122	     -7.95596639	      0.12255855	      1.15278588	     -0.24716556	      0.00000000	      0.50000000	      0.00000000	      0.25000000	     83.16923719	      3.30305441	     -0.40707951	     87.38351533	      1.52513005	     17.49001962	     -2.62517366	      0.00000000	      0.00000000	     52.93384543	    -11.00249607	     -0.84300443	     71.26714968	      1.24384641	    -10.43596399	    -14.33172557	      0.00000000	      0.00000000	    -65.86507152	     10.76302250	      9.05429596	     89.86966700	      6.62307782	     26.02242466	     61.48324831	     18.81464602	      0.00000000	      0.00000000	     89.61376274	    -25.26128430	     30.56618112	     54.47364682	     31.16422689	      0.00000000	      0.00000000
      2.51500000	    -14.81288103	     -2.89732281	     -7.77979433	      0.12254701	      1.15302367	     -0.24744060	      0.00000000	      0.50000000	      0.00000000	      0.25000000	     82.67326480	      3.17043036	     -0.40897025	     85.90398973	      1.49930746	     17.55194195	     -2.34281599	      0.00000000	      0.00000000	     53.58996460	    -10.88338029	     -0.59927776	     72.25018169	      1.26100356	     -9.86181854	    -14.47337468	      0.00000000	      0.00000000	    -65.96300990	     10.97546864	      8.97080212	     89.86969301	      6.59947368	     25.97334530	     61.97128280	     20.11433120	      0.00000000	      0.00000000	     89.59766275	    -25.52116121	     29.68270675	     55.14776187	     31.67324090	      0.00000000	      0.00000000
      2.52000000	    -15.20380619	     -2.73933116	     -7.62906135	      0.12264548	      1.15301009	     -0.24769749	      0.00000000	      0.50000000	      0.00000000	      0.25000000	     82.27366651	      2.97576370	     -0.29798953	     84.48542200	      1.47454878	     17.70853943	     -1.95770343	      0.00000000	      0.00000000	     54.30796441	    -10.65524740	     -0.51131928	     73.24377802	      1.27834508	     -9.30572200	    -14.68096911	      0.00000000	      0.00000000	    -65.90693332	     11.08416450	      8.67605593	     89.86939044	      6.48610900	     26.18649036	     62.35947085	     21.70971253	      0.00000000	      0.00000000	     89.58650601	    -26.34555196	     29.75891091	     55.96492495	     32.58015860	      0.00000000	      0.00000000
      2.52500000	    -15.44531288	     -2.70720382	     -7.41053297	      0.12266157	      1.15348072	     -0.24793002	      0.00000000	      0.50000000	      0.00000000	      0.25000000	     81.61457112	      2.76874856	     -0.34681535	     82.91922786	      1.44721354	     17.68634583	     -1.97622701	      0.00000000	      0.00000000	     54.90836734	    -10.45639415	     -0.27483870	     74.22831022	      1.29552841	     -8.78375502	    -14.77794463	      0.00000000	      0.00000000	    -66.09962705	     11.24558089	      8.39481505	     89.87022308	      6.48328335	     26.18437760	     62.85148732	     23.42141887	      0.00000000	      0.00000000	     89.55212040	    -26.75951964	     28.74339157	     56.91115977	     33.50090316	      0.00000000	      0.00000000
      2.53000000	    -15.81859021	     -2.45363978	     -7.23749427	      0.12287434	      1.15349667	     -0.24818327	      0.00000000	      0.50000000	      0.00000000	      0.25000000	     81.14817032	      2.50581134	     -0.17163640	     81.45701018	      1.42169303	     17.83072646	     -1.55961882	      0.00000000	      0.00000000	     55.65288160	    -10.12646509	     -0.21481385	     75.25071256	      1.31337270	     -8.30717204	    -14.91037658	      0.00000000	      0.00000000	    -65.97737097	     11.26438956	      7.99039049	     89.86972990	      6.31856683	     26.24192976	     63.25800916	     24.30910897	      0.00000000	      0.00000000	     89.54714782	    -27.37319532	     28.82462267	     57.57872146	     34.18125936	      0.00000000	      0.00000000
      2.53500000	    -16.06827826	     -2.16306702	     -7.12778609	      0.12311796	      1.15390622	     -0.24839646	      0.00000000	      0.50000000	      0.00000000	      0.25000000	     80.49297971	      2.30883220	      0.03948539	     79.90929010	      1.39468022	     17.81910534	     -1.46236874	      0.00000000	      0.00000000	     56.25200773	     -9.82105059	     -0.25365693	     76.23408889	      1.33053585	     -7.98231176	    -15.08470237	      0.00000000	      0.00000000	    -65.90619697	     11.17767180	      7.62418995	     89.86956543	      6.23976380	     26.17625906	     63.49098903	     24.30636167	      0.00000000	      0.00000000	     89.55718812	    -27.46986471	     28.74266799	     57.75973048	     34.19865141	      0.00000000	      0.00000000
      2.54000000	    -16.35903367	     -1.95102488	     -6.97470763	      0.12332093	      1.15408537	     -0.24847302	      0.00000000	      0.50000000	      0.00000000	      0.25000000	     79.86627220	      2.08673211	      0.12416497	     78.33970039	      1.36728571	     17.79694601	     -1.31464861	      0.00000000	      0.00000000	     56.98909958	     -9.59835102	     -0.22655084	     77.32989145	      1.34966122	     -7.55300081	    -15.18518003	      0.00000000	      0.00000000	    -65.87240422	     11.17733798	      7.30090936	     89.86916696	      6.09722851	     26.12967208	     63.98040815	     24.32243668	      0.00000000	      0.00000000	     89.53948942	    -27.83037042	     28.49376520	     58.22469803	     34.25117807	      0.00000000	      0.00000000
